# xmcd CD database file
#
# Track frame offsets:
#	150
#	17610
#	29702
#	39182
#	53927
#	64462
#	77760
#	91217
#	110587
#	120477
#	132940
#
# Disc length: 1952 seconds
#
# Revision: 2
# Processed by: cddbd v1.5.2PL0 Copyright (c) Steve Scherf et al.
# Submitted via: CDex 1.70beta2
#
DISCID=8f079e0b
DTITLE=The JP's - Micro Jazz Groove
DYEAR=1993
DGENRE=Jazz
TTITLE0=Miles'n miles from Lazy town
TTITLE1=Saturn goes crazy
TTITLE2=Me and my monkey
TTITLE3=Brown rocking chair
TTITLE4=Groove gravy
TTITLE5=Hard days night
TTITLE6=Dr. Jose
TTITLE7=900 shares of the blues
TTITLE8=Fifi wants more
TTITLE9=Hey brother, where are you now?
TTITLE10=(I would like to say) Thank you and goodbye
EXTD=YEAR: 1993
EXTT0=
EXTT1=
EXTT2=
EXTT3=
EXTT4=
EXTT5=
EXTT6=
EXTT7=
EXTT8=
EXTT9=
EXTT10=
PLAYORDER=
